# xmcd
#
# Track frame offsets:
#  150
#  14346
#  29177
#  45698
#  64128
#  81010
#  99094
#  115857
#  133524
#  146790
#  164128
#  187750
#  205402
#
# Disc length: 2900 seconds
#
# Revision: 2
# Processed by: cddbd v1.5.1PL2 Copyright (c) Steve Scherf et al.
# Submitted via: Collectorz.com_Music_Collector 6.10
#
DISCID=b70b520d
DTITLE=Various Artist - Blue Highways - Ultimate Americana Musicfest 2006
DYEAR=2006
DGENRE=Alternative Country - General Country
TTITLE0=Scott Miller - Only Everything
TTITLE1=Caitlin Cary and Thad Cockrell - Second Option
TTITLE2=Hayes Carll - Down The Road Tonight
TTITLE3=Grayson Capps - Get Back Up
TTITLE4=Tift Merrit - Still Pretending
TTITLE5=Dar Williams - Echoes
TTITLE6=Joy Lynn White - Girls With Apartments In Nashville
TTITLE7=Marah - Sooner Or Later
TTITLE8=Stillhouse - Waiting To See
TTITLE9=Guy Clark - The Dark
TTITLE10=Jeffrey Foucault - Ghost Repeater
TTITLE11=Adam Carrol - Rice Birds
TTITLE12=The Be Good Tanyas - It's Not Happening
EXTD=
EXTT0=
EXTT1=
EXTT2=
EXTT3=
EXTT4=
EXTT5=
EXTT6=
EXTT7=
EXTT8=
EXTT9=
EXTT10=
EXTT11=
EXTT12=
PLAYORDER=
